<mxfile host="65bd71144e">
    <diagram id="2gCY691Qr_W_hnCbI2Al" name="Page-1">
        <mxGraphModel dx="1364" dy="437" grid="0" gridSize="10" guides="1" tooltips="1" connect="1" arrows="1" fold="1" page="1" pageScale="1" pageWidth="827" pageHeight="1169" background="#ffffff" math="0" shadow="0">
            <root>
                <mxCell id="0"/>
                <mxCell id="1" parent="0"/>
                <mxCell id="3" value="Golang server: forward API to nodejs-server or API-gateway" style="rounded=1;whiteSpace=wrap;html=1;fillColor=#f5f5f5;strokeColor=#666666;fontColor=#333333;" parent="1" vertex="1">
                    <mxGeometry x="18" y="201" width="120" height="60" as="geometry"/>
                </mxCell>
                <mxCell id="24" value="Query &amp;amp; &lt;br&gt;Mutation" style="edgeStyle=orthogonalEdgeStyle;rounded=0;orthogonalLoop=1;jettySize=auto;html=1;fillColor=#f5f5f5;strokeColor=#666666;" parent="1" source="4" target="17" edge="1">
                    <mxGeometry relative="1" as="geometry"/>
                </mxCell>
                <mxCell id="4" value="nodejs server&lt;br&gt;persisting web data" style="rounded=1;whiteSpace=wrap;html=1;fillColor=#f5f5f5;strokeColor=#666666;fontColor=#333333;" parent="1" vertex="1">
                    <mxGeometry x="200" y="95" width="160" height="70" as="geometry"/>
                </mxCell>
                <mxCell id="23" value="pointer data" style="edgeStyle=orthogonalEdgeStyle;rounded=0;orthogonalLoop=1;jettySize=auto;html=1;fillColor=#f5f5f5;strokeColor=#666666;" parent="1" source="5" target="17" edge="1">
                    <mxGeometry relative="1" as="geometry"/>
                </mxCell>
                <mxCell id="5" value="python server&lt;br&gt;ETL tool for Excel and CSV" style="rounded=1;whiteSpace=wrap;html=1;fillColor=#f5f5f5;strokeColor=#666666;fontColor=#333333;" parent="1" vertex="1">
                    <mxGeometry x="414" y="20" width="120" height="60" as="geometry"/>
                </mxCell>
                <mxCell id="25" value="&lt;span style=&quot;background-color: rgb(0 , 0 , 0)&quot;&gt;pointer data&lt;/span&gt;" style="edgeStyle=orthogonalEdgeStyle;rounded=0;orthogonalLoop=1;jettySize=auto;html=1;fillColor=#f5f5f5;strokeColor=#666666;" parent="1" source="6" target="17" edge="1">
                    <mxGeometry x="-0.1628" relative="1" as="geometry">
                        <Array as="points">
                            <mxPoint x="440" y="200"/>
                            <mxPoint x="480" y="200"/>
                            <mxPoint x="480" y="125"/>
                        </Array>
                        <mxPoint as="offset"/>
                    </mxGeometry>
                </mxCell>
                <mxCell id="26" value="&lt;span style=&quot;color: rgb(240 , 240 , 240) ; font-family: &amp;#34;helvetica&amp;#34; ; font-size: 11px ; font-style: normal ; font-weight: 400 ; letter-spacing: normal ; text-align: center ; text-indent: 0px ; text-transform: none ; word-spacing: 0px ; background-color: rgb(42 , 42 , 42) ; display: inline ; float: none&quot;&gt;Query &amp;amp;&lt;/span&gt;&lt;br style=&quot;color: rgb(240 , 240 , 240) ; font-family: &amp;#34;helvetica&amp;#34; ; font-size: 11px ; font-style: normal ; font-weight: 400 ; letter-spacing: normal ; text-align: center ; text-indent: 0px ; text-transform: none ; word-spacing: 0px&quot;&gt;&lt;span style=&quot;color: rgb(240 , 240 , 240) ; font-family: &amp;#34;helvetica&amp;#34; ; font-size: 11px ; font-style: normal ; font-weight: 400 ; letter-spacing: normal ; text-align: center ; text-indent: 0px ; text-transform: none ; word-spacing: 0px ; background-color: rgb(42 , 42 , 42) ; display: inline ; float: none&quot;&gt;Mutation&lt;/span&gt;" style="edgeStyle=orthogonalEdgeStyle;rounded=0;orthogonalLoop=1;jettySize=auto;html=1;fillColor=#f5f5f5;strokeColor=#666666;" parent="1" source="6" target="19" edge="1">
                    <mxGeometry relative="1" as="geometry"/>
                </mxCell>
                <mxCell id="6" value="go-mongo-api server&lt;br&gt;Persisting data to mongodb" style="rounded=1;whiteSpace=wrap;html=1;fillColor=#f5f5f5;strokeColor=#666666;fontColor=#333333;" parent="1" vertex="1">
                    <mxGeometry x="380" y="220" width="120" height="60" as="geometry"/>
                </mxCell>
                <mxCell id="7" value="API-gateway&lt;br&gt;Mapping different web request to corresponding services" style="rounded=1;whiteSpace=wrap;html=1;fillColor=#f5f5f5;strokeColor=#666666;fontColor=#333333;" parent="1" vertex="1">
                    <mxGeometry x="185" y="334" width="170" height="70" as="geometry"/>
                </mxCell>
                <mxCell id="27" value="user info" style="edgeStyle=orthogonalEdgeStyle;rounded=0;orthogonalLoop=1;jettySize=auto;html=1;entryX=0.5;entryY=1;entryDx=0;entryDy=0;entryPerimeter=0;exitX=0.5;exitY=0;exitDx=0;exitDy=0;fillColor=#f5f5f5;strokeColor=#666666;" parent="1" source="8" target="17" edge="1">
                    <mxGeometry x="-0.1554" relative="1" as="geometry">
                        <mxPoint x="550" y="200" as="targetPoint"/>
                        <Array as="points">
                            <mxPoint x="570" y="360"/>
                            <mxPoint x="600" y="360"/>
                        </Array>
                        <mxPoint as="offset"/>
                    </mxGeometry>
                </mxCell>
                <mxCell id="8" value="Rust auth-server&lt;br&gt;Handle user registration and Login" style="rounded=1;whiteSpace=wrap;html=1;fillColor=#f5f5f5;strokeColor=#666666;fontColor=#333333;" parent="1" vertex="1">
                    <mxGeometry x="513" y="339" width="120" height="60" as="geometry"/>
                </mxCell>
                <mxCell id="11" value="" style="endArrow=classic;startArrow=classic;html=1;exitX=1;exitY=0.5;exitDx=0;exitDy=0;entryX=0;entryY=0.5;entryDx=0;entryDy=0;fillColor=#f5f5f5;strokeColor=#666666;" parent="1" source="3" target="7" edge="1">
                    <mxGeometry width="50" height="50" relative="1" as="geometry">
                        <mxPoint x="150" y="300" as="sourcePoint"/>
                        <mxPoint x="180" y="345" as="targetPoint"/>
                    </mxGeometry>
                </mxCell>
                <mxCell id="14" value="" style="endArrow=classic;startArrow=classic;html=1;entryX=0;entryY=0.5;entryDx=0;entryDy=0;exitX=1;exitY=0.5;exitDx=0;exitDy=0;fillColor=#f5f5f5;strokeColor=#666666;" parent="1" source="4" target="5" edge="1">
                    <mxGeometry width="50" height="50" relative="1" as="geometry">
                        <mxPoint x="350" y="130" as="sourcePoint"/>
                        <mxPoint x="400" y="80" as="targetPoint"/>
                    </mxGeometry>
                </mxCell>
                <mxCell id="15" value="" style="endArrow=classic;startArrow=classic;html=1;entryX=0;entryY=0.5;entryDx=0;entryDy=0;exitX=1;exitY=0.5;exitDx=0;exitDy=0;fillColor=#f5f5f5;strokeColor=#666666;" parent="1" source="4" target="6" edge="1">
                    <mxGeometry width="50" height="50" relative="1" as="geometry">
                        <mxPoint x="340" y="210" as="sourcePoint"/>
                        <mxPoint x="390" y="160" as="targetPoint"/>
                    </mxGeometry>
                </mxCell>
                <mxCell id="16" value="" style="endArrow=classic;startArrow=classic;html=1;entryX=0;entryY=0.5;entryDx=0;entryDy=0;exitX=1;exitY=0.5;exitDx=0;exitDy=0;fillColor=#f5f5f5;strokeColor=#666666;" parent="1" source="7" target="8" edge="1">
                    <mxGeometry width="50" height="50" relative="1" as="geometry">
                        <mxPoint x="350" y="350" as="sourcePoint"/>
                        <mxPoint x="400" y="300" as="targetPoint"/>
                    </mxGeometry>
                </mxCell>
                <mxCell id="17" value="PostgreSQL&lt;br&gt;(web data)" style="shape=cylinder3;whiteSpace=wrap;html=1;boundedLbl=1;backgroundOutline=1;size=15;fillColor=#f5f5f5;strokeColor=#666666;fontColor=#333333;" parent="1" vertex="1">
                    <mxGeometry x="560" y="85" width="80" height="80" as="geometry"/>
                </mxCell>
                <mxCell id="18" value="SQL DB&lt;br&gt;(business data)" style="shape=cylinder3;whiteSpace=wrap;html=1;boundedLbl=1;backgroundOutline=1;size=15;fillColor=#f5f5f5;strokeColor=#666666;fontColor=#333333;" parent="1" vertex="1">
                    <mxGeometry x="700" y="85" width="80" height="80" as="geometry"/>
                </mxCell>
                <mxCell id="19" value="MongoDB&lt;br&gt;(web files, images, etc)" style="shape=cylinder3;whiteSpace=wrap;html=1;boundedLbl=1;backgroundOutline=1;size=15;fillColor=#f5f5f5;strokeColor=#666666;fontColor=#333333;" parent="1" vertex="1">
                    <mxGeometry x="700" y="210" width="90" height="80" as="geometry"/>
                </mxCell>
                <mxCell id="21" value="pointer" style="endArrow=classic;html=1;entryX=0;entryY=0.5;entryDx=0;entryDy=0;entryPerimeter=0;exitX=1;exitY=0.5;exitDx=0;exitDy=0;exitPerimeter=0;fillColor=#f5f5f5;strokeColor=#666666;" parent="1" source="17" target="18" edge="1">
                    <mxGeometry width="50" height="50" relative="1" as="geometry">
                        <mxPoint x="510" y="220" as="sourcePoint"/>
                        <mxPoint x="560" y="170" as="targetPoint"/>
                    </mxGeometry>
                </mxCell>
                <mxCell id="30" value="" style="endArrow=classic;startArrow=classic;html=1;entryX=0;entryY=0.5;entryDx=0;entryDy=0;strokeColor=#666666;exitX=1;exitY=0.5;exitDx=0;exitDy=0;" edge="1" parent="1" source="3" target="4">
                    <mxGeometry width="50" height="50" relative="1" as="geometry">
                        <mxPoint x="142" y="226" as="sourcePoint"/>
                        <mxPoint x="192" y="170" as="targetPoint"/>
                    </mxGeometry>
                </mxCell>
                <mxCell id="33" value="" style="edgeStyle=orthogonalEdgeStyle;rounded=0;orthogonalLoop=1;jettySize=auto;html=1;fontColor=#333333;strokeColor=#666666;" edge="1" parent="1" source="32" target="3">
                    <mxGeometry relative="1" as="geometry"/>
                </mxCell>
                <mxCell id="32" value="Frontend UI:&lt;br&gt;web client" style="rounded=1;whiteSpace=wrap;html=1;strokeColor=#666666;fillColor=#FFFFFF;fontColor=#333333;" vertex="1" parent="1">
                    <mxGeometry x="-144" y="201" width="120" height="60" as="geometry"/>
                </mxCell>
            </root>
        </mxGraphModel>
    </diagram>
</mxfile>